<svg xmlns="http://www.w3.org/2000/svg" viewBox="0 0 512 512" role="img" aria-labelledby="title"><title>VulanCore logo</title><defs><linearGradient id="b" x1="90" x2="390" y1="110" y2="420" gradientUnits="userSpaceOnUse"><stop stop-color="#0075e8"/><stop offset="1" stop-color="#003b7a"/></linearGradient><linearGradient id="o" x1="260" x2="445" y1="95" y2="280" gradientUnits="userSpaceOnUse"><stop stop-color="#ff7a00"/><stop offset="1" stop-color="#ffbe23"/></linearGradient><linearGradient id="g" x1="230" x2="315" y1="190" y2="320" gradientUnits="userSpaceOnUse"><stop stop-color="#65d84a"/><stop offset="1" stop-color="#159947"/></linearGradient></defs><rect width="512" height="512" rx="96" fill="#fff"/><path d="M254 92c-76 0-138 62-138 138 0 46 23 87 58 112l80 58 82-59c34-25 56-65 56-111 0-76-62-138-138-138z" fill="url(#b)" opacity=".96"/><path d="M262 92c21 8 47 25 68 54 31 43 34 96 18 139l63-40 20-124c-39-22-88-34-169-29z" fill="url(#o)"/><circle cx="198" cy="173" r="36" fill="#fff" opacity=".92"/><path d="M172 317c58-53 133-83 226-93l-14 38c-79 8-145 34-198 78z" fill="#002f68" opacity=".9"/><rect x="204" y="224" width="54" height="90" rx="6" fill="#0875df"/><rect x="270" y="188" width="54" height="126" rx="6" fill="url(#g)"/><rect x="336" y="150" width="54" height="164" rx="6" fill="#ffb21a"/><path d="M316 315l107-107-4 47 62-34-37 91-36-35-62 67z" fill="#061b36"/><circle cx="382" cy="346" r="50" fill="#0b7ce2" stroke="#003b7a" stroke-width="12"/><path d="M356 343l21 22 39-45" fill="none" stroke="#07192d" stroke-width="17" stroke-linecap="round" stroke-linejoin="round"/></svg>
